<?xml version="1.0" standalone="no"?>
<!DOCTYPE svg PUBLIC "-//W3C//DTD SVG 20010904//EN"
 "http://www.w3.org/TR/2001/REC-SVG-20010904/DTD/svg10.dtd">
<svg version="1.0" xmlns="http://www.w3.org/2000/svg"
 width="22.000000pt" height="22.000000pt" viewBox="0 0 22.000000 22.000000"
 preserveAspectRatio="xMidYMid meet">

<g transform="translate(0.000000,22.000000) scale(0.100000,-0.100000)"
fill="#000000" stroke="none">
<path d="M84 213 c-12 -2 -34 -17 -49 -33 -63 -66 -16 -173 75 -173 92 0 139
110 74 173 -30 29 -63 40 -100 33z m76 -81 c0 -5 -13 -20 -28 -35 l-28 -27
-24 25 c-13 14 -19 25 -13 25 6 0 16 -7 23 -15 11 -13 15 -11 32 10 19 25 38
33 38 17z"/>
</g>
</svg>
